<mxfile host="app.diagrams.net" modified="2023-01-31T19:43:31.440Z" agent="5.0 (Windows NT 10.0; Win64; x64) AppleWebKit/537.36 (KHTML, like Gecko) Chrome/109.0.0.0 Safari/537.36" etag="4lDt_TE4QlkOphZs4Npn" version="20.8.13" type="github">
  <diagram name="Страница 1" id="tX1SHIYQduVF-hHsY0a2">
    <mxGraphModel dx="791" dy="669" grid="1" gridSize="10" guides="1" tooltips="1" connect="1" arrows="1" fold="1" page="1" pageScale="1" pageWidth="827" pageHeight="1169" math="0" shadow="0">
      <root>
        <mxCell id="0" />
        <mxCell id="1" parent="0" />
        <mxCell id="8QwyqLwO_ubi6OeIbo5z-3" style="edgeStyle=orthogonalEdgeStyle;rounded=0;orthogonalLoop=1;jettySize=auto;html=1;exitX=0.5;exitY=1;exitDx=0;exitDy=0;entryX=0.5;entryY=0;entryDx=0;entryDy=0;" edge="1" parent="1" source="8QwyqLwO_ubi6OeIbo5z-1" target="8QwyqLwO_ubi6OeIbo5z-2">
          <mxGeometry relative="1" as="geometry" />
        </mxCell>
        <mxCell id="8QwyqLwO_ubi6OeIbo5z-1" value="ДЕЙКСТРА" style="ellipse;whiteSpace=wrap;html=1;" vertex="1" parent="1">
          <mxGeometry x="270" y="20" width="260" height="50" as="geometry" />
        </mxCell>
        <mxCell id="8QwyqLwO_ubi6OeIbo5z-5" style="edgeStyle=orthogonalEdgeStyle;rounded=0;orthogonalLoop=1;jettySize=auto;html=1;exitX=0.5;exitY=1;exitDx=0;exitDy=0;entryX=0.5;entryY=0;entryDx=0;entryDy=0;" edge="1" parent="1" source="8QwyqLwO_ubi6OeIbo5z-2" target="8QwyqLwO_ubi6OeIbo5z-4">
          <mxGeometry relative="1" as="geometry" />
        </mxCell>
        <mxCell id="8QwyqLwO_ubi6OeIbo5z-2" value="Инициализировать&amp;nbsp; сеть нод" style="shape=process;whiteSpace=wrap;html=1;backgroundOutline=1;rounded=1;" vertex="1" parent="1">
          <mxGeometry x="260" y="100" width="280" height="60" as="geometry" />
        </mxCell>
        <mxCell id="8QwyqLwO_ubi6OeIbo5z-7" style="edgeStyle=orthogonalEdgeStyle;rounded=0;orthogonalLoop=1;jettySize=auto;html=1;exitX=0.5;exitY=1;exitDx=0;exitDy=0;entryX=0.5;entryY=0;entryDx=0;entryDy=0;" edge="1" parent="1" source="8QwyqLwO_ubi6OeIbo5z-4" target="8QwyqLwO_ubi6OeIbo5z-6">
          <mxGeometry relative="1" as="geometry" />
        </mxCell>
        <mxCell id="8QwyqLwO_ubi6OeIbo5z-4" value="Выбрать ближайшую непосещенную ноду&lt;br&gt;Назначить её как ноду С" style="rounded=1;whiteSpace=wrap;html=1;" vertex="1" parent="1">
          <mxGeometry x="230" y="190" width="340" height="60" as="geometry" />
        </mxCell>
        <mxCell id="8QwyqLwO_ubi6OeIbo5z-10" style="edgeStyle=orthogonalEdgeStyle;rounded=0;orthogonalLoop=1;jettySize=auto;html=1;exitX=0.5;exitY=1;exitDx=0;exitDy=0;entryX=0.5;entryY=0;entryDx=0;entryDy=0;" edge="1" parent="1" source="8QwyqLwO_ubi6OeIbo5z-6" target="8QwyqLwO_ubi6OeIbo5z-9">
          <mxGeometry relative="1" as="geometry" />
        </mxCell>
        <mxCell id="8QwyqLwO_ubi6OeIbo5z-31" style="edgeStyle=orthogonalEdgeStyle;rounded=0;orthogonalLoop=1;jettySize=auto;html=1;entryX=0;entryY=0.5;entryDx=0;entryDy=0;" edge="1" parent="1" source="8QwyqLwO_ubi6OeIbo5z-6" target="8QwyqLwO_ubi6OeIbo5z-36">
          <mxGeometry relative="1" as="geometry">
            <mxPoint x="291.25" y="980" as="targetPoint" />
            <Array as="points">
              <mxPoint x="180" y="350" />
              <mxPoint x="180" y="980" />
            </Array>
          </mxGeometry>
        </mxCell>
        <mxCell id="8QwyqLwO_ubi6OeIbo5z-6" value="С == конечная" style="rhombus;whiteSpace=wrap;html=1;" vertex="1" parent="1">
          <mxGeometry x="320" y="280" width="162.5" height="140" as="geometry" />
        </mxCell>
        <mxCell id="8QwyqLwO_ubi6OeIbo5z-20" style="edgeStyle=orthogonalEdgeStyle;rounded=0;orthogonalLoop=1;jettySize=auto;html=1;exitX=0.5;exitY=1;exitDx=0;exitDy=0;entryX=0.5;entryY=0;entryDx=0;entryDy=0;" edge="1" parent="1" source="8QwyqLwO_ubi6OeIbo5z-9" target="8QwyqLwO_ubi6OeIbo5z-12">
          <mxGeometry relative="1" as="geometry" />
        </mxCell>
        <mxCell id="8QwyqLwO_ubi6OeIbo5z-9" value="Для каждой соседенней ноды N&lt;br&gt;с длиной связи D" style="shape=trapezoid;perimeter=trapezoidPerimeter;whiteSpace=wrap;html=1;fixedSize=1;" vertex="1" parent="1">
          <mxGeometry x="280" y="455" width="240" height="110" as="geometry" />
        </mxCell>
        <mxCell id="8QwyqLwO_ubi6OeIbo5z-11" style="edgeStyle=orthogonalEdgeStyle;rounded=0;orthogonalLoop=1;jettySize=auto;html=1;exitX=0.5;exitY=1;exitDx=0;exitDy=0;" edge="1" parent="1" source="8QwyqLwO_ubi6OeIbo5z-1" target="8QwyqLwO_ubi6OeIbo5z-1">
          <mxGeometry relative="1" as="geometry" />
        </mxCell>
        <mxCell id="8QwyqLwO_ubi6OeIbo5z-15" style="edgeStyle=orthogonalEdgeStyle;rounded=0;orthogonalLoop=1;jettySize=auto;html=1;entryX=0.5;entryY=0;entryDx=0;entryDy=0;" edge="1" parent="1" source="8QwyqLwO_ubi6OeIbo5z-12" target="8QwyqLwO_ubi6OeIbo5z-13">
          <mxGeometry relative="1" as="geometry">
            <Array as="points">
              <mxPoint x="500" y="650" />
              <mxPoint x="500" y="600" />
              <mxPoint x="600" y="600" />
            </Array>
          </mxGeometry>
        </mxCell>
        <mxCell id="8QwyqLwO_ubi6OeIbo5z-12" value="N &amp;gt; C + D" style="rhombus;whiteSpace=wrap;html=1;" vertex="1" parent="1">
          <mxGeometry x="340" y="600" width="120" height="100" as="geometry" />
        </mxCell>
        <mxCell id="8QwyqLwO_ubi6OeIbo5z-16" style="edgeStyle=orthogonalEdgeStyle;rounded=0;orthogonalLoop=1;jettySize=auto;html=1;exitX=0.5;exitY=1;exitDx=0;exitDy=0;entryX=0.5;entryY=0;entryDx=0;entryDy=0;" edge="1" parent="1" source="8QwyqLwO_ubi6OeIbo5z-13" target="8QwyqLwO_ubi6OeIbo5z-14">
          <mxGeometry relative="1" as="geometry">
            <Array as="points">
              <mxPoint x="600" y="720" />
            </Array>
          </mxGeometry>
        </mxCell>
        <mxCell id="8QwyqLwO_ubi6OeIbo5z-13" value="N = C + D" style="rounded=0;whiteSpace=wrap;html=1;" vertex="1" parent="1">
          <mxGeometry x="520" y="640" width="160" height="50" as="geometry" />
        </mxCell>
        <mxCell id="8QwyqLwO_ubi6OeIbo5z-18" style="edgeStyle=orthogonalEdgeStyle;rounded=0;orthogonalLoop=1;jettySize=auto;html=1;exitX=0.5;exitY=1;exitDx=0;exitDy=0;entryX=1;entryY=0;entryDx=0;entryDy=0;" edge="1" parent="1" source="8QwyqLwO_ubi6OeIbo5z-14" target="8QwyqLwO_ubi6OeIbo5z-17">
          <mxGeometry relative="1" as="geometry">
            <Array as="points">
              <mxPoint x="600" y="800" />
              <mxPoint x="475" y="800" />
              <mxPoint x="475" y="732" />
            </Array>
          </mxGeometry>
        </mxCell>
        <mxCell id="8QwyqLwO_ubi6OeIbo5z-14" value="N.P = C" style="rounded=0;whiteSpace=wrap;html=1;" vertex="1" parent="1">
          <mxGeometry x="520" y="720" width="160" height="50" as="geometry" />
        </mxCell>
        <mxCell id="8QwyqLwO_ubi6OeIbo5z-19" style="edgeStyle=orthogonalEdgeStyle;rounded=0;orthogonalLoop=1;jettySize=auto;html=1;exitX=0;exitY=0.5;exitDx=0;exitDy=0;entryX=0;entryY=0.5;entryDx=0;entryDy=0;" edge="1" parent="1" source="8QwyqLwO_ubi6OeIbo5z-17" target="8QwyqLwO_ubi6OeIbo5z-12">
          <mxGeometry relative="1" as="geometry">
            <Array as="points">
              <mxPoint x="250" y="760" />
              <mxPoint x="250" y="650" />
            </Array>
          </mxGeometry>
        </mxCell>
        <mxCell id="8QwyqLwO_ubi6OeIbo5z-21" style="edgeStyle=orthogonalEdgeStyle;rounded=0;orthogonalLoop=1;jettySize=auto;html=1;exitX=1;exitY=1;exitDx=0;exitDy=0;entryX=1;entryY=0.5;entryDx=0;entryDy=0;" edge="1" parent="1" source="8QwyqLwO_ubi6OeIbo5z-17" target="8QwyqLwO_ubi6OeIbo5z-9">
          <mxGeometry relative="1" as="geometry">
            <Array as="points">
              <mxPoint x="450" y="788" />
              <mxPoint x="450" y="830" />
              <mxPoint x="710" y="830" />
              <mxPoint x="710" y="510" />
            </Array>
          </mxGeometry>
        </mxCell>
        <mxCell id="8QwyqLwO_ubi6OeIbo5z-24" style="edgeStyle=orthogonalEdgeStyle;rounded=0;orthogonalLoop=1;jettySize=auto;html=1;exitX=0.5;exitY=1;exitDx=0;exitDy=0;entryX=0.5;entryY=0;entryDx=0;entryDy=0;" edge="1" parent="1" source="8QwyqLwO_ubi6OeIbo5z-17" target="8QwyqLwO_ubi6OeIbo5z-22">
          <mxGeometry relative="1" as="geometry" />
        </mxCell>
        <mxCell id="8QwyqLwO_ubi6OeIbo5z-17" value="" style="ellipse;whiteSpace=wrap;html=1;aspect=fixed;" vertex="1" parent="1">
          <mxGeometry x="360" y="720" width="80" height="80" as="geometry" />
        </mxCell>
        <mxCell id="8QwyqLwO_ubi6OeIbo5z-22" value="" style="ellipse;whiteSpace=wrap;html=1;aspect=fixed;" vertex="1" parent="1">
          <mxGeometry x="360" y="850" width="80" height="80" as="geometry" />
        </mxCell>
        <mxCell id="8QwyqLwO_ubi6OeIbo5z-28" style="edgeStyle=orthogonalEdgeStyle;rounded=0;orthogonalLoop=1;jettySize=auto;html=1;exitX=0.5;exitY=1;exitDx=0;exitDy=0;entryX=0.5;entryY=0;entryDx=0;entryDy=0;" edge="1" parent="1" target="8QwyqLwO_ubi6OeIbo5z-27">
          <mxGeometry relative="1" as="geometry">
            <mxPoint x="401.25" y="1000" as="sourcePoint" />
          </mxGeometry>
        </mxCell>
        <mxCell id="8QwyqLwO_ubi6OeIbo5z-30" style="edgeStyle=orthogonalEdgeStyle;rounded=0;orthogonalLoop=1;jettySize=auto;html=1;exitX=0.5;exitY=1;exitDx=0;exitDy=0;entryX=0.5;entryY=0;entryDx=0;entryDy=0;" edge="1" parent="1" source="8QwyqLwO_ubi6OeIbo5z-27" target="8QwyqLwO_ubi6OeIbo5z-29">
          <mxGeometry relative="1" as="geometry" />
        </mxCell>
        <mxCell id="8QwyqLwO_ubi6OeIbo5z-27" value="Список нод в пути" style="shape=parallelogram;perimeter=parallelogramPerimeter;whiteSpace=wrap;html=1;fixedSize=1;" vertex="1" parent="1">
          <mxGeometry x="290" y="1020" width="220" height="50" as="geometry" />
        </mxCell>
        <mxCell id="8QwyqLwO_ubi6OeIbo5z-29" value="Конец" style="ellipse;whiteSpace=wrap;html=1;" vertex="1" parent="1">
          <mxGeometry x="290" y="1100" width="220" height="40" as="geometry" />
        </mxCell>
        <mxCell id="8QwyqLwO_ubi6OeIbo5z-32" value="НЕТ" style="text;html=1;align=center;verticalAlign=middle;resizable=0;points=[];autosize=1;strokeColor=none;fillColor=none;" vertex="1" parent="1">
          <mxGeometry x="290" y="620" width="50" height="30" as="geometry" />
        </mxCell>
        <mxCell id="8QwyqLwO_ubi6OeIbo5z-33" value="ДА" style="text;html=1;align=center;verticalAlign=middle;resizable=0;points=[];autosize=1;strokeColor=none;fillColor=none;" vertex="1" parent="1">
          <mxGeometry x="460" y="620" width="40" height="30" as="geometry" />
        </mxCell>
        <mxCell id="8QwyqLwO_ubi6OeIbo5z-34" value="ДА" style="text;html=1;align=center;verticalAlign=middle;resizable=0;points=[];autosize=1;strokeColor=none;fillColor=none;" vertex="1" parent="1">
          <mxGeometry x="270" y="320" width="40" height="30" as="geometry" />
        </mxCell>
        <mxCell id="8QwyqLwO_ubi6OeIbo5z-35" value="НЕТ" style="text;html=1;align=center;verticalAlign=middle;resizable=0;points=[];autosize=1;strokeColor=none;fillColor=none;" vertex="1" parent="1">
          <mxGeometry x="400" y="425" width="50" height="30" as="geometry" />
        </mxCell>
        <mxCell id="8QwyqLwO_ubi6OeIbo5z-36" value="Обратить порядок" style="shape=process;whiteSpace=wrap;html=1;backgroundOutline=1;rounded=1;" vertex="1" parent="1">
          <mxGeometry x="290" y="960" width="220" height="40" as="geometry" />
        </mxCell>
      </root>
    </mxGraphModel>
  </diagram>
</mxfile>
